<?xml version="1.0" standalone="no"?>
<!DOCTYPE svg PUBLIC "-//W3C//DTD SVG 20010904//EN"
 "http://www.w3.org/TR/2001/REC-SVG-20010904/DTD/svg10.dtd">
<svg version="1.0" xmlns="http://www.w3.org/2000/svg"
 width="773.000000pt" height="265.000000pt" viewBox="0 0 773.000000 265.000000"
 preserveAspectRatio="xMidYMid meet">

<g transform="translate(0.000000,265.000000) scale(0.100000,-0.100000)"
fill="white" stroke="none">
<path d="M14 2613 c12 -48 54 -111 101 -150 24 -20 49 -50 55 -66 11 -33 14
-543 4 -597 -6 -26 -19 -40 -68 -71 l-61 -39 272 0 c164 0 293 4 325 11 79 17
165 64 225 125 91 90 130 204 120 352 -11 180 -122 322 -299 383 -56 19 -93
22 -328 28 -250 7 -268 8 -309 30 l-44 23 7 -29z m601 -262 c86 -38 119 -110
114 -239 -4 -70 -8 -86 -34 -123 -44 -62 -92 -83 -190 -84 l-80 0 -3 233 -2
232 77 0 c54 0 91 -6 118 -19z"/>
<path d="M6792 2599 c-71 -12 -144 -51 -180 -95 -39 -47 -67 -147 -59 -209 17
-122 81 -175 291 -245 134 -44 174 -88 132 -146 -12 -16 -27 -19 -93 -19 -91
1 -116 11 -242 105 l-82 61 5 -78 c3 -43 8 -118 12 -166 7 -105 -2 -99 170
-123 197 -28 338 6 422 101 49 56 66 114 60 203 -11 151 -95 228 -313 286
-102 27 -135 46 -135 77 0 74 188 62 336 -21 l52 -29 -6 112 c-2 62 -8 121
-13 133 -6 17 -24 24 -91 37 -112 22 -202 28 -266 16z"/>
<path d="M4957 2585 c-261 -66 -409 -312 -342 -570 55 -210 228 -335 465 -336
151 -1 264 43 360 140 137 137 170 354 80 530 -28 56 -112 146 -166 177 -109
64 -279 89 -397 59z m221 -221 c47 -19 88 -58 115 -109 30 -58 29 -172 -2
-238 -25 -51 -68 -92 -118 -114 -46 -19 -140 -16 -188 6 -179 81 -174 388 6
460 38 15 146 13 187 -5z"/>
<path d="M960 2586 c0 -3 25 -21 55 -40 33 -22 56 -44 59 -58 3 -13 7 -142 8
-288 3 -261 4 -266 29 -320 68 -145 237 -226 417 -200 150 21 242 82 294 195
22 47 23 64 28 334 l5 283 39 34 c22 19 44 34 51 34 6 0 26 -13 45 -29 34 -28
35 -31 42 -122 8 -124 10 -553 1 -603 -5 -34 -14 -43 -67 -77 l-61 -39 238 0
c130 0 237 2 237 4 0 2 -20 16 -44 30 -80 47 -76 34 -76 263 l0 205 268 -260
267 -260 5 408 c6 462 -2 424 94 480 l51 30 -242 0 c-134 0 -243 -2 -243 -5 0
-2 21 -18 48 -36 72 -49 72 -48 72 -197 l0 -134 -192 186 -192 187 -302 -3
c-166 -2 -306 -6 -309 -10 -4 -4 0 -23 9 -42 13 -28 16 -72 16 -273 0 -131 -5
-256 -10 -278 -5 -24 -21 -51 -40 -67 -25 -23 -39 -28 -86 -28 -68 0 -106 19
-128 64 -24 51 -24 560 0 594 9 13 13 26 9 30 -8 8 -395 16 -395 8z"/>
<path d="M3240 2575 c-182 -51 -307 -181 -340 -354 -30 -159 9 -298 113 -409
140 -147 335 -182 627 -111 111 26 117 30 96 60 -23 33 -24 335 -1 365 32 43
26 44 -187 44 l-203 0 50 -31 c72 -45 75 -50 75 -155 l0 -93 -36 -7 c-54 -10
-150 2 -186 23 -51 30 -87 89 -96 161 -26 194 62 308 238 306 92 -1 168 -22
240 -68 30 -19 56 -34 57 -32 1 1 -4 60 -12 132 -8 71 -15 132 -15 135 0 15
-152 41 -255 45 -79 3 -126 0 -165 -11z"/>
<path d="M3784 2577 c65 -42 98 -71 106 -93 11 -28 14 -654 3 -693 -3 -14 -30
-38 -67 -62 l-61 -39 366 0 366 0 27 125 c16 69 30 135 34 147 5 19 1 19 -41
-10 -60 -42 -119 -53 -257 -50 l-115 3 -3 68 -3 67 131 0 c117 0 132 -2 150
-20 20 -20 20 -20 20 114 l0 135 -37 -7 c-21 -4 -87 -7 -148 -7 l-110 0 -3 58
-3 58 144 -3 c140 -3 145 -4 180 -31 l37 -28 -1 33 c0 18 -6 80 -12 138 l-12
105 -355 2 c-279 2 -351 -1 -336 -10z"/>
<path d="M5550 2586 c0 -2 23 -18 50 -36 28 -18 55 -41 60 -51 12 -21 13 -708
2 -726 -4 -6 -34 -28 -67 -47 l-59 -36 242 0 c133 0 242 2 242 4 0 2 -25 18
-54 35 -45 25 -57 37 -65 68 -11 39 -15 393 -5 393 3 0 126 -117 272 -261
l267 -260 5 413 c3 227 8 418 13 425 4 6 33 27 65 45 l57 33 -122 3 c-68 1
-178 1 -245 0 l-122 -3 56 -34 c32 -20 62 -46 68 -61 6 -15 9 -76 8 -147 l-3
-121 -190 184 -190 183 -142 1 c-79 0 -143 -2 -143 -4z"/>
<path d="M903 1670 c-98 -21 -187 -90 -230 -178 -24 -48 -28 -69 -28 -137 1
-65 5 -88 25 -125 l24 -45 7 68 c8 93 20 101 55 38 24 -46 80 -101 101 -101 4
0 10 51 11 112 3 86 8 122 23 150 45 88 170 91 216 5 22 -42 23 -132 0 -176
-16 -32 -16 -34 4 -60 11 -14 44 -47 73 -73 l52 -46 26 41 c77 124 90 271 33
376 -54 98 -142 149 -271 156 -44 2 -98 0 -121 -5z"/>
<path d="M1530 1540 c14 -48 31 -73 96 -142 l64 -66 0 -106 c0 -102 1 -106 19
-96 29 15 36 12 19 -7 -32 -38 -27 -41 26 -17 30 14 83 27 120 31 l66 6 0 79
0 80 88 -4 c76 -3 94 -7 129 -30 61 -40 88 -103 87 -203 -1 -160 -81 -235
-250 -235 -34 0 -54 7 -87 31 -38 28 -48 30 -103 27 -35 -2 -72 -11 -88 -21
-23 -16 -26 -23 -26 -80 0 -75 -12 -95 -82 -136 l-53 -31 272 0 c296 0 345 6
436 52 153 77 238 216 238 393 1 92 -11 147 -48 219 -30 59 -115 146 -169 174
-99 50 -126 54 -404 61 -240 6 -269 9 -312 28 l-46 21 8 -28z"/>
<path d="M7289 1530 c-148 -26 -229 -113 -237 -253 -5 -86 15 -143 68 -190 44
-40 87 -61 220 -106 103 -34 121 -44 138 -78 17 -31 15 -41 -13 -68 -20 -21
-34 -25 -82 -25 -73 0 -149 34 -252 115 l-74 57 6 -113 c4 -63 7 -137 7 -166
0 -49 1 -52 33 -62 17 -6 79 -18 137 -27 223 -34 384 18 455 147 26 46 30 64
30 129 0 62 -5 85 -28 133 -47 94 -115 136 -306 187 -78 21 -121 46 -121 70 0
6 10 20 21 31 19 19 30 21 105 17 75 -4 94 -9 174 -49 l90 -45 -1 65 c-1 37
-4 95 -8 131 l-6 65 -80 17 c-101 21 -217 29 -276 18z"/>
<path d="M4533 1516 c-172 -44 -305 -175 -342 -337 -6 -24 -11 -78 -11 -120
-1 -282 228 -476 535 -454 87 6 286 47 314 64 11 7 11 13 -3 32 -22 32 -23
343 -1 373 8 10 12 23 9 27 -3 5 -96 9 -207 9 l-202 0 52 -30 c75 -43 83 -59
83 -161 0 -100 1 -99 -96 -99 -139 0 -218 72 -231 213 -18 202 117 317 323
274 69 -15 186 -66 199 -87 17 -28 20 1 9 108 -7 64 -13 126 -13 138 -1 18
-12 23 -78 38 -103 23 -273 30 -340 12z"/>
<path d="M5454 1515 c-293 -64 -444 -386 -309 -661 145 -297 610 -337 824 -71
75 94 113 235 93 353 -45 274 -316 443 -608 379z m217 -219 c89 -37 139 -117
139 -222 0 -79 -22 -140 -67 -186 -51 -52 -106 -71 -187 -66 -127 8 -206 101
-206 242 0 112 47 194 130 230 44 19 147 20 191 2z"/>
<path d="M2481 1508 c9 -7 37 -27 61 -44 32 -23 47 -41 51 -64 12 -57 8 -644
-4 -678 -7 -22 -28 -42 -67 -66 l-57 -35 250 -1 250 0 -52 30 c-79 45 -83 55
-83 193 0 90 3 118 13 115 6 -2 75 -79 151 -171 l139 -167 241 0 240 0 -37 38
c-41 42 -43 51 -22 92 l16 30 158 0 158 0 11 -25 c19 -41 15 -57 -25 -97 l-37
-38 229 0 230 0 -40 35 c-22 19 -43 34 -47 35 -17 1 -62 101 -198 448 l-149
377 -170 3 c-94 1 -171 0 -171 -3 0 -2 16 -20 37 -38 l36 -34 -138 -334 c-76
-184 -139 -336 -141 -338 -4 -5 -40 38 -137 162 l-78 100 45 46 c57 58 76 104
76 181 0 74 -19 123 -68 173 -69 70 -110 79 -417 84 -223 3 -267 2 -254 -9z
m458 -183 c44 -22 54 -74 27 -140 -17 -41 -42 -55 -95 -55 l-41 0 0 105 0 105
40 0 c23 0 54 -7 69 -15z m835 -221 c20 -53 36 -100 36 -105 0 -11 -160 -12
-160 -1 0 14 75 202 81 202 4 0 23 -43 43 -96z"/>
<path d="M6075 1497 c16 -12 43 -34 60 -49 l30 -26 3 -329 c2 -180 0 -343 -3
-361 -5 -27 -17 -40 -68 -73 l-62 -39 245 0 245 0 -53 31 c-83 49 -82 46 -82
271 0 109 3 198 6 198 4 0 123 -116 266 -257 142 -142 263 -259 268 -261 6 -2
10 160 10 409 0 466 -7 429 85 478 l50 26 -122 3 c-68 1 -177 1 -244 0 l-121
-3 59 -40 58 -40 3 -145 2 -145 -187 188 -188 187 -145 0 -145 -1 30 -22z"/>
<path d="M900 1299 c-18 -73 -8 -128 28 -159 17 -14 38 -38 48 -55 l19 -30
-35 30 c-20 17 -66 48 -104 70 -37 22 -82 55 -98 74 l-31 35 5 -57 5 -57 -56
7 -56 6 38 -41 c20 -23 37 -46 37 -50 0 -14 -42 -48 -95 -76 -27 -15 -60 -34
-72 -44 -22 -17 -22 -17 33 -17 47 0 59 -4 75 -24 16 -19 18 -33 13 -68 l-6
-43 60 40 c33 22 77 47 99 54 32 12 34 15 13 15 -52 2 -55 17 -9 44 62 36 190
63 174 37 -3 -5 -16 -10 -28 -10 -12 0 -40 -9 -62 -19 l-40 -18 33 -7 c17 -4
32 -10 32 -12 0 -2 -20 -24 -45 -47 -47 -46 -61 -76 -26 -57 43 22 119 1 141
-39 14 -28 12 -74 -5 -97 -21 -28 -18 -35 10 -28 31 8 32 -2 3 -34 l-23 -25
30 7 c36 9 105 52 105 66 0 6 -9 10 -19 10 -23 0 -33 23 -25 56 5 19 3 23 -10
18 -22 -9 -32 22 -18 59 13 35 4 47 -37 47 -44 0 -14 11 57 21 91 13 126 1
120 -41 -4 -27 -2 -29 35 -36 48 -8 91 -47 84 -75 -14 -53 51 19 72 80 6 19
11 45 11 59 l0 25 -23 -21 -23 -22 -21 28 c-11 15 -22 46 -25 69 -7 52 -52
118 -123 178 -67 57 -123 132 -131 174 -9 41 -20 39 -27 -5 -9 -52 5 -77 80
-148 37 -35 76 -79 87 -98 12 -22 -19 4 -93 77 -105 103 -151 164 -151 199 0
37 -19 21 -30 -25z m260 -335 c34 -39 34 -50 1 -39 -18 5 -51 51 -51 70 0 14
21 1 50 -31z"/>
<path d="M1891 1104 c-42 -18 -38 -23 12 -16 23 2 37 10 37 18 0 17 -6 17 -49
-2z"/>
<path d="M1754 1071 c-17 -10 -53 -35 -79 -56 -32 -24 -51 -33 -58 -26 -7 7
-6 15 3 26 7 8 10 18 7 21 -17 17 -167 -172 -167 -210 0 -5 21 10 46 34 59 54
175 109 245 115 l54 5 -60 -18 c-95 -28 -173 -79 -267 -173 -79 -78 -106 -119
-79 -119 5 0 28 -16 51 -35 23 -19 43 -35 45 -35 2 0 22 35 45 78 55 107 125
192 180 220 51 26 131 29 172 8 16 -8 30 -11 33 -6 10 17 136 50 188 50 50 0
50 0 32 20 -29 32 -135 80 -191 86 -33 4 -70 1 -106 -10 -31 -9 -61 -16 -67
-16 -19 0 -12 28 11 44 33 23 0 20 -38 -3z"/>
<path d="M557 839 c-48 -50 -107 -156 -107 -193 0 -18 1 -18 20 -1 17 15 20
16 25 2 4 -8 -1 -39 -9 -68 -38 -125 -13 -298 57 -398 l32 -46 3 33 c2 17 8
32 14 32 6 0 28 -20 49 -44 79 -90 185 -130 323 -124 80 3 101 8 168 40 53 25
94 54 135 95 58 59 124 157 127 189 1 16 -114 124 -132 124 -4 0 -16 -13 -25
-29 -10 -17 -38 -51 -63 -76 -111 -110 -223 -121 -310 -31 -95 99 -82 271 31
403 19 23 35 44 35 48 0 15 -84 -4 -111 -24 -16 -12 -31 -21 -33 -21 -7 0 5
61 16 83 5 10 7 21 4 24 -7 7 -99 -50 -155 -96 l-44 -36 6 50 c3 28 9 65 13
83 10 47 -11 41 -69 -19z"/>
<path d="M1090 804 c0 -20 14 -40 49 -73 38 -35 51 -55 56 -86 4 -22 9 -48 12
-58 2 -10 53 -59 111 -109 59 -50 115 -103 124 -117 13 -19 18 -47 18 -108 0
-45 5 -94 11 -110 11 -31 53 -79 82 -95 16 -8 17 -7 8 11 -14 26 -14 94 0 125
13 28 29 25 29 -5 0 -58 80 -150 147 -168 82 -23 191 -4 248 43 l30 25 -37 1
c-38 0 -118 27 -118 39 0 3 18 7 40 7 131 4 235 118 215 236 -14 80 -96 153
-185 165 l-41 6 36 -36 c39 -39 44 -70 20 -117 -9 -16 -29 -37 -45 -45 -35
-18 -125 -32 -118 -19 47 98 47 152 0 205 l-27 30 -1 -32 c-1 -23 -10 -40 -29
-57 -47 -40 -78 -27 -216 87 -105 86 -128 101 -168 106 -67 9 -69 11 -76 49
-9 45 -23 56 -83 67 -31 6 -55 18 -69 34 l-23 26 0 -27z"/>
</g>
</svg>
